<mxfile host="app.diagrams.net" agent="Mozilla/5.0 (Windows NT 10.0; Win64; x64) AppleWebKit/537.36 (KHTML, like Gecko) Chrome/137.0.0.0 Safari/537.36 Edg/137.0.0.0" version="27.1.4">
  <diagram name="Page-1" id="Q7OZ-y-GeXmkOtCzJn70">
    <mxGraphModel dx="978" dy="524" grid="1" gridSize="10" guides="1" tooltips="1" connect="1" arrows="1" fold="1" page="1" pageScale="1" pageWidth="1169" pageHeight="827" background="light-dark(#FFFFFF,#F1F1F1)" math="0" shadow="1" adaptiveColors="simple">
      <root>
        <mxCell id="0" />
        <mxCell id="1" parent="0" />
        <mxCell id="EEwLQgVUChroAXqvbahQ-1" value="Initial Conditions" style="rounded=1;whiteSpace=wrap;html=1;labelBackgroundColor=none;fillColor=#B2C9AB;strokeColor=#788AA3;fontColor=#46495D;" parent="1" vertex="1">
          <mxGeometry x="30" y="230" width="90" height="190" as="geometry" />
        </mxCell>
        <mxCell id="EEwLQgVUChroAXqvbahQ-2" value="Fluid properties" style="rounded=1;whiteSpace=wrap;html=1;labelBackgroundColor=none;fillColor=#B2C9AB;strokeColor=#788AA3;fontColor=#46495D;" parent="1" vertex="1">
          <mxGeometry x="30" y="430" width="90" height="90" as="geometry" />
        </mxCell>
        <mxCell id="EEwLQgVUChroAXqvbahQ-4" value="Isentropic Compression" style="rounded=1;whiteSpace=wrap;html=1;labelBackgroundColor=none;fillColor=#F8CECC;strokeColor=#788AA3;fontColor=#46495D;" parent="1" vertex="1">
          <mxGeometry x="320" y="230" width="90" height="140" as="geometry" />
        </mxCell>
        <mxCell id="EEwLQgVUChroAXqvbahQ-10" value="" style="edgeStyle=elbowEdgeStyle;elbow=horizontal;endArrow=classic;html=1;curved=0;rounded=1;endSize=8;startSize=8;fontSize=12;entryX=0.007;entryY=0.449;entryDx=0;entryDy=0;entryPerimeter=0;exitX=0.988;exitY=0.336;exitDx=0;exitDy=0;exitPerimeter=0;labelBackgroundColor=none;strokeColor=#788AA3;fontColor=default;" parent="1" source="EEwLQgVUChroAXqvbahQ-2" target="EEwLQgVUChroAXqvbahQ-4" edge="1">
          <mxGeometry width="50" height="50" relative="1" as="geometry">
            <mxPoint x="120" y="510" as="sourcePoint" />
            <mxPoint x="170" y="460" as="targetPoint" />
            <Array as="points">
              <mxPoint x="220" y="400" />
            </Array>
          </mxGeometry>
        </mxCell>
        <mxCell id="EEwLQgVUChroAXqvbahQ-11" value="gamma" style="edgeLabel;html=1;align=center;verticalAlign=middle;resizable=0;points=[];fontSize=12;labelBackgroundColor=#D9D9D9;fontColor=#46495D;rounded=1;" parent="EEwLQgVUChroAXqvbahQ-10" vertex="1" connectable="0">
          <mxGeometry x="0.6716" relative="1" as="geometry">
            <mxPoint x="-90" y="163" as="offset" />
          </mxGeometry>
        </mxCell>
        <mxCell id="EEwLQgVUChroAXqvbahQ-12" value="" style="edgeStyle=elbowEdgeStyle;elbow=horizontal;endArrow=classic;html=1;curved=0;rounded=1;endSize=8;startSize=8;fontSize=12;exitX=0.996;exitY=0.671;exitDx=0;exitDy=0;entryX=0.003;entryY=0.605;entryDx=0;entryDy=0;labelBackgroundColor=none;strokeColor=#788AA3;fontColor=default;exitPerimeter=0;entryPerimeter=0;" parent="1" source="EEwLQgVUChroAXqvbahQ-2" target="EEwLQgVUChroAXqvbahQ-4" edge="1">
          <mxGeometry width="50" height="50" relative="1" as="geometry">
            <mxPoint x="120" y="535" as="sourcePoint" />
            <mxPoint x="280" y="330" as="targetPoint" />
            <Array as="points">
              <mxPoint x="230" y="400" />
            </Array>
          </mxGeometry>
        </mxCell>
        <mxCell id="EEwLQgVUChroAXqvbahQ-13" value="cp" style="edgeLabel;html=1;align=center;verticalAlign=middle;resizable=0;points=[];fontSize=12;labelBackgroundColor=#D9D9D9;fontColor=#46495D;rounded=1;" parent="EEwLQgVUChroAXqvbahQ-12" vertex="1" connectable="0">
          <mxGeometry x="0.7863" y="-1" relative="1" as="geometry">
            <mxPoint x="-110" y="174" as="offset" />
          </mxGeometry>
        </mxCell>
        <mxCell id="EEwLQgVUChroAXqvbahQ-14" value="Isobaric Heat addition" style="rounded=1;whiteSpace=wrap;html=1;labelBackgroundColor=none;fillColor=#F8CECC;strokeColor=#788AA3;fontColor=#46495D;" parent="1" vertex="1">
          <mxGeometry x="540" y="230" width="90" height="140" as="geometry" />
        </mxCell>
        <mxCell id="QI7GWG2SebsIpQkl3_8m-1" value="" style="endArrow=classic;html=1;rounded=1;fontSize=12;startSize=8;endSize=8;curved=1;exitX=1;exitY=0.25;exitDx=0;exitDy=0;entryX=0;entryY=0.25;entryDx=0;entryDy=0;labelBackgroundColor=none;strokeColor=#788AA3;fontColor=default;" parent="1" source="EEwLQgVUChroAXqvbahQ-4" target="EEwLQgVUChroAXqvbahQ-14" edge="1">
          <mxGeometry width="50" height="50" relative="1" as="geometry">
            <mxPoint x="410" y="460" as="sourcePoint" />
            <mxPoint x="460" y="410" as="targetPoint" />
          </mxGeometry>
        </mxCell>
        <mxCell id="QI7GWG2SebsIpQkl3_8m-2" value="T2" style="edgeLabel;html=1;align=center;verticalAlign=middle;resizable=0;points=[];fontSize=12;labelBackgroundColor=#D9D9D9;fontColor=#46495D;rounded=1;" parent="QI7GWG2SebsIpQkl3_8m-1" vertex="1" connectable="0">
          <mxGeometry x="0.364" y="-2" relative="1" as="geometry">
            <mxPoint x="-18" y="-7" as="offset" />
          </mxGeometry>
        </mxCell>
        <mxCell id="QI7GWG2SebsIpQkl3_8m-24" value="" style="edgeStyle=elbowEdgeStyle;elbow=horizontal;endArrow=classic;html=1;curved=0;rounded=1;endSize=8;startSize=8;fontSize=12;entryX=0;entryY=0.571;entryDx=0;entryDy=0;entryPerimeter=0;labelBackgroundColor=none;strokeColor=#788AA3;fontColor=default;" parent="1" source="rzA8GYBJxwjR6tfgLr13-12" target="EEwLQgVUChroAXqvbahQ-14" edge="1">
          <mxGeometry width="50" height="50" relative="1" as="geometry">
            <mxPoint x="210" y="490" as="sourcePoint" />
            <mxPoint x="290" y="440" as="targetPoint" />
            <Array as="points">
              <mxPoint x="420" y="400" />
            </Array>
          </mxGeometry>
        </mxCell>
        <mxCell id="QI7GWG2SebsIpQkl3_8m-30" value="" style="endArrow=classic;html=1;rounded=1;fontSize=12;startSize=8;endSize=8;curved=1;exitX=0.999;exitY=0.472;exitDx=0;exitDy=0;exitPerimeter=0;labelBackgroundColor=none;strokeColor=#788AA3;fontColor=default;verticalAlign=middle;" parent="1" edge="1">
          <mxGeometry width="50" height="50" relative="1" as="geometry">
            <mxPoint x="118.90999999999997" y="289.68" as="sourcePoint" />
            <mxPoint x="158" y="290" as="targetPoint" />
          </mxGeometry>
        </mxCell>
        <mxCell id="QI7GWG2SebsIpQkl3_8m-34" value="P3" style="rounded=1;whiteSpace=wrap;html=1;labelBackgroundColor=none;fillColor=#B5739D;strokeColor=#788AA3;fontColor=#46495D;" parent="1" vertex="1">
          <mxGeometry x="159" y="280" width="50" height="20" as="geometry" />
        </mxCell>
        <mxCell id="QI7GWG2SebsIpQkl3_8m-36" value="P4" style="rounded=1;whiteSpace=wrap;html=1;labelBackgroundColor=none;fillColor=#B5739D;strokeColor=#788AA3;fontColor=#46495D;" parent="1" vertex="1">
          <mxGeometry x="159" y="312" width="50" height="20" as="geometry" />
        </mxCell>
        <mxCell id="QI7GWG2SebsIpQkl3_8m-37" value="" style="endArrow=classic;html=1;rounded=1;fontSize=12;startSize=8;endSize=8;curved=1;exitX=1.001;exitY=0.631;exitDx=0;exitDy=0;exitPerimeter=0;entryX=0;entryY=0.5;entryDx=0;entryDy=0;labelBackgroundColor=none;strokeColor=#788AA3;fontColor=default;" parent="1" target="QI7GWG2SebsIpQkl3_8m-36" edge="1">
          <mxGeometry width="50" height="50" relative="1" as="geometry">
            <mxPoint x="119.09000000000003" y="321.89" as="sourcePoint" />
            <mxPoint x="229" y="282" as="targetPoint" />
          </mxGeometry>
        </mxCell>
        <mxCell id="QI7GWG2SebsIpQkl3_8m-40" value="T3" style="rounded=1;whiteSpace=wrap;html=1;labelBackgroundColor=none;fillColor=#B5739D;strokeColor=#788AA3;fontColor=#46495D;" parent="1" vertex="1">
          <mxGeometry x="160" y="380" width="50" height="20" as="geometry" />
        </mxCell>
        <mxCell id="QI7GWG2SebsIpQkl3_8m-41" value="" style="endArrow=classic;html=1;rounded=1;fontSize=12;startSize=8;endSize=8;curved=1;entryX=0;entryY=0.5;entryDx=0;entryDy=0;exitX=1.004;exitY=0.842;exitDx=0;exitDy=0;exitPerimeter=0;labelBackgroundColor=none;strokeColor=#788AA3;fontColor=default;" parent="1" source="EEwLQgVUChroAXqvbahQ-1" target="QI7GWG2SebsIpQkl3_8m-40" edge="1">
          <mxGeometry width="50" height="50" relative="1" as="geometry">
            <mxPoint x="130" y="390" as="sourcePoint" />
            <mxPoint x="228" y="330" as="targetPoint" />
          </mxGeometry>
        </mxCell>
        <mxCell id="QI7GWG2SebsIpQkl3_8m-42" value="T3" style="rounded=1;whiteSpace=wrap;html=1;labelBackgroundColor=none;fillColor=#B5739D;strokeColor=#788AA3;fontColor=#46495D;" parent="1" vertex="1">
          <mxGeometry x="450" y="330" width="50" height="20" as="geometry" />
        </mxCell>
        <mxCell id="QI7GWG2SebsIpQkl3_8m-43" value="" style="endArrow=classic;html=1;rounded=1;fontSize=12;startSize=8;endSize=8;curved=1;entryX=-0.012;entryY=0.785;entryDx=0;entryDy=0;entryPerimeter=0;exitX=1;exitY=0.5;exitDx=0;exitDy=0;labelBackgroundColor=none;strokeColor=#788AA3;fontColor=default;" parent="1" source="QI7GWG2SebsIpQkl3_8m-42" target="EEwLQgVUChroAXqvbahQ-14" edge="1">
          <mxGeometry width="50" height="50" relative="1" as="geometry">
            <mxPoint x="320" y="450" as="sourcePoint" />
            <mxPoint x="370" y="400" as="targetPoint" />
          </mxGeometry>
        </mxCell>
        <mxCell id="kjRx0Hb_FwiAP0zgiSjk-4" value="" style="edgeStyle=elbowEdgeStyle;elbow=horizontal;endArrow=classic;html=1;curved=0;rounded=1;endSize=8;startSize=8;fontSize=12;entryDx=0;entryDy=0;entryPerimeter=0;labelBackgroundColor=none;strokeColor=#788AA3;fontColor=default;exitX=0.65;exitY=0.578;exitDx=0;exitDy=0;exitPerimeter=0;" parent="1" source="QI7GWG2SebsIpQkl3_8m-20" target="QI7GWG2SebsIpQkl3_8m-20" edge="1">
          <mxGeometry width="50" height="50" relative="1" as="geometry">
            <mxPoint x="210" y="490" as="sourcePoint" />
            <mxPoint x="510" y="310" as="targetPoint" />
            <Array as="points" />
          </mxGeometry>
        </mxCell>
        <mxCell id="QI7GWG2SebsIpQkl3_8m-20" value="" style="shape=waypoint;fillStyle=solid;size=6;pointerEvents=1;points=[];fillColor=none;resizable=0;rotatable=0;perimeter=centerPerimeter;snapToPoint=1;labelBackgroundColor=none;strokeColor=#788AA3;fontColor=#46495D;rounded=1;" parent="1" vertex="1">
          <mxGeometry x="209" y="480" width="20" height="20" as="geometry" />
        </mxCell>
        <mxCell id="kjRx0Hb_FwiAP0zgiSjk-8" value="" style="endArrow=classic;html=1;rounded=1;fontSize=12;startSize=8;endSize=8;curved=1;exitX=1.002;exitY=0.428;exitDx=0;exitDy=0;exitPerimeter=0;labelBackgroundColor=none;strokeColor=#788AA3;fontColor=default;verticalAlign=middle;entryX=0;entryY=0.5;entryDx=0;entryDy=0;" parent="1" source="EEwLQgVUChroAXqvbahQ-4" target="kjRx0Hb_FwiAP0zgiSjk-9" edge="1">
          <mxGeometry width="50" height="50" relative="1" as="geometry">
            <mxPoint x="380" y="290" as="sourcePoint" />
            <mxPoint x="419" y="290" as="targetPoint" />
          </mxGeometry>
        </mxCell>
        <mxCell id="kjRx0Hb_FwiAP0zgiSjk-9" value="Wc" style="rounded=1;whiteSpace=wrap;html=1;labelBackgroundColor=none;fillColor=#D4E1F5;strokeColor=#788AA3;fontColor=#46495D;" parent="1" vertex="1">
          <mxGeometry x="440" y="280" width="50" height="20" as="geometry" />
        </mxCell>
        <mxCell id="rzA8GYBJxwjR6tfgLr13-1" value="Isentropic Expansion" style="rounded=1;whiteSpace=wrap;html=1;labelBackgroundColor=none;fillColor=#F8CECC;strokeColor=#788AA3;fontColor=#46495D;" parent="1" vertex="1">
          <mxGeometry x="790" y="230" width="90" height="170" as="geometry" />
        </mxCell>
        <mxCell id="rzA8GYBJxwjR6tfgLr13-3" value="" style="endArrow=classic;html=1;rounded=1;fontSize=12;startSize=8;endSize=8;curved=1;labelBackgroundColor=none;strokeColor=#788AA3;fontColor=default;exitX=0.993;exitY=0.214;exitDx=0;exitDy=0;exitPerimeter=0;entryX=0;entryY=0.176;entryDx=0;entryDy=0;entryPerimeter=0;" parent="1" source="EEwLQgVUChroAXqvbahQ-14" target="rzA8GYBJxwjR6tfgLr13-1" edge="1">
          <mxGeometry width="50" height="50" relative="1" as="geometry">
            <mxPoint x="650" y="260" as="sourcePoint" />
            <mxPoint x="690" y="260" as="targetPoint" />
          </mxGeometry>
        </mxCell>
        <mxCell id="rzA8GYBJxwjR6tfgLr13-4" value="T3" style="edgeLabel;html=1;align=center;verticalAlign=middle;resizable=0;points=[];fontSize=12;labelBackgroundColor=#D9D9D9;fontColor=#46495D;rounded=1;" parent="rzA8GYBJxwjR6tfgLr13-3" vertex="1" connectable="0">
          <mxGeometry x="0.364" y="-2" relative="1" as="geometry">
            <mxPoint x="-18" y="-7" as="offset" />
          </mxGeometry>
        </mxCell>
        <mxCell id="rzA8GYBJxwjR6tfgLr13-7" value="P3" style="rounded=1;whiteSpace=wrap;html=1;labelBackgroundColor=none;fillColor=#B5739D;strokeColor=#788AA3;fontColor=#46495D;" parent="1" vertex="1">
          <mxGeometry x="690" y="280" width="50" height="20" as="geometry" />
        </mxCell>
        <mxCell id="rzA8GYBJxwjR6tfgLr13-8" value="" style="endArrow=classic;html=1;rounded=1;fontSize=12;startSize=8;endSize=8;curved=1;entryX=0.004;entryY=0.35;entryDx=0;entryDy=0;entryPerimeter=0;exitX=1;exitY=0.5;exitDx=0;exitDy=0;labelBackgroundColor=none;strokeColor=#788AA3;fontColor=default;" parent="1" source="rzA8GYBJxwjR6tfgLr13-7" target="rzA8GYBJxwjR6tfgLr13-1" edge="1">
          <mxGeometry width="50" height="50" relative="1" as="geometry">
            <mxPoint x="521" y="400" as="sourcePoint" />
            <mxPoint x="710" y="290" as="targetPoint" />
          </mxGeometry>
        </mxCell>
        <mxCell id="rzA8GYBJxwjR6tfgLr13-9" value="P4" style="rounded=1;whiteSpace=wrap;html=1;labelBackgroundColor=none;fillColor=#B5739D;strokeColor=#788AA3;fontColor=#46495D;" parent="1" vertex="1">
          <mxGeometry x="690" y="310" width="50" height="20" as="geometry" />
        </mxCell>
        <mxCell id="rzA8GYBJxwjR6tfgLr13-10" value="" style="endArrow=classic;html=1;rounded=1;fontSize=12;startSize=8;endSize=8;curved=1;exitX=1;exitY=0.5;exitDx=0;exitDy=0;labelBackgroundColor=none;strokeColor=#788AA3;fontColor=default;entryX=-0.001;entryY=0.531;entryDx=0;entryDy=0;entryPerimeter=0;" parent="1" source="rzA8GYBJxwjR6tfgLr13-9" target="rzA8GYBJxwjR6tfgLr13-1" edge="1">
          <mxGeometry width="50" height="50" relative="1" as="geometry">
            <mxPoint x="521" y="430" as="sourcePoint" />
            <mxPoint x="780" y="321" as="targetPoint" />
          </mxGeometry>
        </mxCell>
        <mxCell id="rzA8GYBJxwjR6tfgLr13-11" value="" style="edgeStyle=elbowEdgeStyle;elbow=horizontal;endArrow=classic;html=1;curved=0;rounded=1;endSize=8;startSize=8;fontSize=12;entryX=0.022;entryY=0.905;entryDx=0;entryDy=0;entryPerimeter=0;labelBackgroundColor=none;strokeColor=#788AA3;fontColor=default;" parent="1" source="rzA8GYBJxwjR6tfgLr13-12" target="rzA8GYBJxwjR6tfgLr13-1" edge="1">
          <mxGeometry width="50" height="50" relative="1" as="geometry">
            <mxPoint x="390" y="575" as="sourcePoint" />
            <mxPoint x="690" y="395" as="targetPoint" />
            <Array as="points">
              <mxPoint x="750" y="440" />
            </Array>
          </mxGeometry>
        </mxCell>
        <mxCell id="rzA8GYBJxwjR6tfgLr13-12" value="" style="shape=waypoint;fillStyle=solid;size=6;pointerEvents=1;points=[];fillColor=none;resizable=0;rotatable=0;perimeter=centerPerimeter;snapToPoint=1;labelBackgroundColor=none;strokeColor=#788AA3;fontColor=#46495D;rounded=1;" parent="1" vertex="1">
          <mxGeometry x="400" y="480" width="20" height="20" as="geometry" />
        </mxCell>
        <mxCell id="rzA8GYBJxwjR6tfgLr13-17" value="" style="edgeStyle=elbowEdgeStyle;elbow=horizontal;endArrow=classic;html=1;curved=0;rounded=1;endSize=8;startSize=8;fontSize=12;labelBackgroundColor=none;strokeColor=#788AA3;fontColor=default;entryX=0;entryY=0.706;entryDx=0;entryDy=0;entryPerimeter=0;" parent="1" source="rzA8GYBJxwjR6tfgLr13-18" target="rzA8GYBJxwjR6tfgLr13-1" edge="1">
          <mxGeometry width="50" height="50" relative="1" as="geometry">
            <mxPoint x="210" y="460" as="sourcePoint" />
            <mxPoint x="710" y="349" as="targetPoint" />
            <Array as="points">
              <mxPoint x="720" y="400" />
            </Array>
          </mxGeometry>
        </mxCell>
        <mxCell id="rzA8GYBJxwjR6tfgLr13-19" value="" style="endArrow=none;html=1;rounded=0;strokeColor=light-dark(#C1C1C1, #788aa3);" parent="1" edge="1" target="rzA8GYBJxwjR6tfgLr13-12">
          <mxGeometry width="50" height="50" relative="1" as="geometry">
            <mxPoint x="220" y="490" as="sourcePoint" />
            <mxPoint x="380" y="490" as="targetPoint" />
          </mxGeometry>
        </mxCell>
        <mxCell id="rzA8GYBJxwjR6tfgLr13-22" value="" style="endArrow=classic;html=1;rounded=1;fontSize=12;startSize=8;endSize=8;curved=1;labelBackgroundColor=none;strokeColor=#788AA3;fontColor=default;verticalAlign=middle;entryX=0;entryY=0.5;entryDx=0;entryDy=0;exitX=0.999;exitY=0.469;exitDx=0;exitDy=0;exitPerimeter=0;" parent="1" source="rzA8GYBJxwjR6tfgLr13-1" target="rzA8GYBJxwjR6tfgLr13-23" edge="1">
          <mxGeometry width="50" height="50" relative="1" as="geometry">
            <mxPoint x="900" y="310" as="sourcePoint" />
            <mxPoint x="849" y="310" as="targetPoint" />
          </mxGeometry>
        </mxCell>
        <mxCell id="rzA8GYBJxwjR6tfgLr13-23" value="Wt" style="rounded=1;whiteSpace=wrap;html=1;labelBackgroundColor=none;fillColor=#D4E1F5;strokeColor=#788AA3;fontColor=#46495D;" parent="1" vertex="1">
          <mxGeometry x="910" y="300" width="50" height="20" as="geometry" />
        </mxCell>
        <mxCell id="rzA8GYBJxwjR6tfgLr13-25" value="Isobaric Heat rejection" style="rounded=1;whiteSpace=wrap;html=1;labelBackgroundColor=none;fillColor=#F8CECC;strokeColor=#788AA3;fontColor=#46495D;" parent="1" vertex="1">
          <mxGeometry x="980" y="230" width="90" height="140" as="geometry" />
        </mxCell>
        <mxCell id="rzA8GYBJxwjR6tfgLr13-26" value="" style="endArrow=classic;html=1;rounded=1;fontSize=12;startSize=8;endSize=8;curved=1;labelBackgroundColor=none;strokeColor=#788AA3;fontColor=default;entryX=-0.013;entryY=0.209;entryDx=0;entryDy=0;entryPerimeter=0;exitX=1.012;exitY=0.171;exitDx=0;exitDy=0;exitPerimeter=0;" parent="1" source="rzA8GYBJxwjR6tfgLr13-1" target="rzA8GYBJxwjR6tfgLr13-25" edge="1">
          <mxGeometry width="50" height="50" relative="1" as="geometry">
            <mxPoint x="890" y="259" as="sourcePoint" />
            <mxPoint x="911" y="260" as="targetPoint" />
          </mxGeometry>
        </mxCell>
        <mxCell id="rzA8GYBJxwjR6tfgLr13-27" value="T4" style="edgeLabel;html=1;align=center;verticalAlign=middle;resizable=0;points=[];fontSize=12;labelBackgroundColor=#D9D9D9;fontColor=#46495D;rounded=1;" parent="rzA8GYBJxwjR6tfgLr13-26" vertex="1" connectable="0">
          <mxGeometry x="0.364" y="-2" relative="1" as="geometry">
            <mxPoint x="-18" y="-7" as="offset" />
          </mxGeometry>
        </mxCell>
        <mxCell id="rzA8GYBJxwjR6tfgLr13-31" value="T1" style="rounded=1;whiteSpace=wrap;html=1;labelBackgroundColor=none;fillColor=#B5739D;strokeColor=#788AA3;fontColor=#46495D;" parent="1" vertex="1">
          <mxGeometry x="160" y="344" width="50" height="20" as="geometry" />
        </mxCell>
        <mxCell id="rzA8GYBJxwjR6tfgLr13-32" value="" style="endArrow=classic;html=1;rounded=1;fontSize=12;startSize=8;endSize=8;curved=1;entryX=0;entryY=0.5;entryDx=0;entryDy=0;exitX=1.004;exitY=0.842;exitDx=0;exitDy=0;exitPerimeter=0;labelBackgroundColor=none;strokeColor=#788AA3;fontColor=default;" parent="1" target="rzA8GYBJxwjR6tfgLr13-31" edge="1">
          <mxGeometry width="50" height="50" relative="1" as="geometry">
            <mxPoint x="120" y="354" as="sourcePoint" />
            <mxPoint x="228" y="294" as="targetPoint" />
          </mxGeometry>
        </mxCell>
        <mxCell id="rzA8GYBJxwjR6tfgLr13-37" value="T1" style="rounded=1;whiteSpace=wrap;html=1;labelBackgroundColor=none;fillColor=#B5739D;strokeColor=#788AA3;fontColor=#46495D;" parent="1" vertex="1">
          <mxGeometry x="240" y="340" width="50" height="20" as="geometry" />
        </mxCell>
        <mxCell id="rzA8GYBJxwjR6tfgLr13-38" value="" style="endArrow=classic;html=1;rounded=1;fontSize=12;startSize=8;endSize=8;curved=1;entryX=0.006;entryY=0.857;entryDx=0;entryDy=0;entryPerimeter=0;exitX=1;exitY=0.5;exitDx=0;exitDy=0;labelBackgroundColor=none;strokeColor=#788AA3;fontColor=default;" parent="1" target="EEwLQgVUChroAXqvbahQ-4" edge="1">
          <mxGeometry width="50" height="50" relative="1" as="geometry">
            <mxPoint x="290" y="350" as="sourcePoint" />
            <mxPoint x="319" y="350" as="targetPoint" />
          </mxGeometry>
        </mxCell>
        <mxCell id="rzA8GYBJxwjR6tfgLr13-41" value="T1" style="rounded=1;whiteSpace=wrap;html=1;labelBackgroundColor=none;fillColor=#B5739D;strokeColor=#788AA3;fontColor=#46495D;" parent="1" vertex="1">
          <mxGeometry x="900" y="270" width="50" height="20" as="geometry" />
        </mxCell>
        <mxCell id="rzA8GYBJxwjR6tfgLr13-42" value="" style="endArrow=classic;html=1;rounded=1;fontSize=12;startSize=8;endSize=8;curved=1;entryX=-0.009;entryY=0.36;entryDx=0;entryDy=0;entryPerimeter=0;labelBackgroundColor=none;strokeColor=#788AA3;fontColor=default;exitX=1;exitY=0.5;exitDx=0;exitDy=0;" parent="1" source="rzA8GYBJxwjR6tfgLr13-41" target="rzA8GYBJxwjR6tfgLr13-25" edge="1">
          <mxGeometry width="50" height="50" relative="1" as="geometry">
            <mxPoint x="1030" y="280" as="sourcePoint" />
            <mxPoint x="920" y="280" as="targetPoint" />
          </mxGeometry>
        </mxCell>
        <mxCell id="rzA8GYBJxwjR6tfgLr13-44" value="" style="edgeStyle=elbowEdgeStyle;elbow=horizontal;endArrow=classic;html=1;curved=0;rounded=1;endSize=8;startSize=8;fontSize=12;entryX=0;entryY=0.786;entryDx=0;entryDy=0;entryPerimeter=0;labelBackgroundColor=none;strokeColor=#788AA3;fontColor=default;" parent="1" source="rzA8GYBJxwjR6tfgLr13-45" target="rzA8GYBJxwjR6tfgLr13-25" edge="1">
          <mxGeometry width="50" height="50" relative="1" as="geometry">
            <mxPoint x="740" y="490" as="sourcePoint" />
            <mxPoint x="942" y="384" as="targetPoint" />
            <Array as="points">
              <mxPoint x="940" y="420" />
            </Array>
          </mxGeometry>
        </mxCell>
        <mxCell id="rzA8GYBJxwjR6tfgLr13-50" value="" style="endArrow=classic;html=1;rounded=1;fontSize=12;startSize=8;endSize=8;curved=1;exitX=1.002;exitY=0.428;exitDx=0;exitDy=0;exitPerimeter=0;labelBackgroundColor=none;strokeColor=#788AA3;fontColor=default;verticalAlign=middle;entryX=0;entryY=0.5;entryDx=0;entryDy=0;" parent="1" target="rzA8GYBJxwjR6tfgLr13-51" edge="1">
          <mxGeometry width="50" height="50" relative="1" as="geometry">
            <mxPoint x="630" y="350" as="sourcePoint" />
            <mxPoint x="639" y="350" as="targetPoint" />
          </mxGeometry>
        </mxCell>
        <mxCell id="rzA8GYBJxwjR6tfgLr13-51" value="Qin" style="rounded=1;whiteSpace=wrap;html=1;labelBackgroundColor=none;fillColor=#D4E1F5;strokeColor=#788AA3;fontColor=#46495D;" parent="1" vertex="1">
          <mxGeometry x="660" y="340" width="50" height="20" as="geometry" />
        </mxCell>
        <mxCell id="rzA8GYBJxwjR6tfgLr13-53" value="" style="endArrow=classic;html=1;rounded=1;fontSize=12;startSize=8;endSize=8;curved=1;labelBackgroundColor=none;strokeColor=#788AA3;fontColor=default;verticalAlign=middle;entryX=0;entryY=0.5;entryDx=0;entryDy=0;exitX=1;exitY=0.5;exitDx=0;exitDy=0;" parent="1" source="rzA8GYBJxwjR6tfgLr13-25" target="rzA8GYBJxwjR6tfgLr13-54" edge="1">
          <mxGeometry width="50" height="50" relative="1" as="geometry">
            <mxPoint x="1080" y="300" as="sourcePoint" />
            <mxPoint x="1079" y="300" as="targetPoint" />
          </mxGeometry>
        </mxCell>
        <mxCell id="rzA8GYBJxwjR6tfgLr13-54" value="Qout" style="rounded=1;whiteSpace=wrap;html=1;labelBackgroundColor=none;fillColor=#D4E1F5;strokeColor=#788AA3;fontColor=#46495D;" parent="1" vertex="1">
          <mxGeometry x="1100" y="290" width="50" height="20" as="geometry" />
        </mxCell>
        <mxCell id="Ht5jDDZCFMFz_1KY98Es-1" value="" style="endArrow=none;dashed=1;html=1;rounded=0;exitX=0.75;exitY=1;exitDx=0;exitDy=0;strokeColor=#868686;" edge="1" parent="1" source="EEwLQgVUChroAXqvbahQ-2" target="Ht5jDDZCFMFz_1KY98Es-2">
          <mxGeometry width="50" height="50" relative="1" as="geometry">
            <mxPoint x="120" y="580" as="sourcePoint" />
            <mxPoint x="130" y="610" as="targetPoint" />
          </mxGeometry>
        </mxCell>
        <mxCell id="Ht5jDDZCFMFz_1KY98Es-4" value="" style="group" vertex="1" connectable="0" parent="1">
          <mxGeometry x="59" y="580" width="150" height="80" as="geometry" />
        </mxCell>
        <mxCell id="Ht5jDDZCFMFz_1KY98Es-2" value="" style="shape=datastore;whiteSpace=wrap;html=1;fillColor=#C3ABD0;strokeColor=#868686;" vertex="1" parent="Ht5jDDZCFMFz_1KY98Es-4">
          <mxGeometry x="45" width="60" height="60" as="geometry" />
        </mxCell>
        <mxCell id="Ht5jDDZCFMFz_1KY98Es-3" value="ideal_gas_properties.db" style="rounded=0;whiteSpace=wrap;html=1;strokeColor=none;fillColor=none;fontColor=#868686;" vertex="1" parent="Ht5jDDZCFMFz_1KY98Es-4">
          <mxGeometry y="60" width="150" height="20" as="geometry" />
        </mxCell>
        <mxCell id="Ht5jDDZCFMFz_1KY98Es-6" value="Preliminary calculations" style="rounded=1;whiteSpace=wrap;html=1;labelBackgroundColor=none;fillColor=#A9C4EB;strokeColor=#788AA3;fontColor=#46495D;" vertex="1" parent="1">
          <mxGeometry x="200" y="120" width="90" height="100" as="geometry" />
        </mxCell>
        <mxCell id="Ht5jDDZCFMFz_1KY98Es-10" value="" style="edgeStyle=elbowEdgeStyle;elbow=horizontal;endArrow=classic;html=1;curved=0;rounded=1;endSize=8;startSize=8;fontSize=12;exitX=1.008;exitY=0.085;exitDx=0;exitDy=0;entryX=-0.013;entryY=0.147;entryDx=0;entryDy=0;labelBackgroundColor=none;strokeColor=#788AA3;fontColor=default;exitPerimeter=0;entryPerimeter=0;" edge="1" parent="1" source="EEwLQgVUChroAXqvbahQ-1" target="Ht5jDDZCFMFz_1KY98Es-6">
          <mxGeometry width="50" height="50" relative="1" as="geometry">
            <mxPoint x="120" y="225" as="sourcePoint" />
            <mxPoint x="320" y="50" as="targetPoint" />
            <Array as="points">
              <mxPoint x="150" y="190" />
            </Array>
          </mxGeometry>
        </mxCell>
        <mxCell id="Ht5jDDZCFMFz_1KY98Es-13" value="P1" style="edgeLabel;html=1;align=center;verticalAlign=middle;resizable=0;points=[];labelBackgroundColor=light-dark(#C1C1C1, #d9d9d9);fontColor=#4D4D4D;" vertex="1" connectable="0" parent="Ht5jDDZCFMFz_1KY98Es-10">
          <mxGeometry x="-0.5576" relative="1" as="geometry">
            <mxPoint y="-24" as="offset" />
          </mxGeometry>
        </mxCell>
        <mxCell id="Ht5jDDZCFMFz_1KY98Es-14" value="" style="edgeStyle=elbowEdgeStyle;elbow=horizontal;endArrow=classic;html=1;curved=0;rounded=1;endSize=8;startSize=8;fontSize=12;entryX=-0.013;entryY=0.328;entryDx=0;entryDy=0;labelBackgroundColor=none;strokeColor=#788AA3;fontColor=default;exitX=0.997;exitY=0.145;exitDx=0;exitDy=0;exitPerimeter=0;entryPerimeter=0;" edge="1" parent="1" source="EEwLQgVUChroAXqvbahQ-1" target="Ht5jDDZCFMFz_1KY98Es-6">
          <mxGeometry width="50" height="50" relative="1" as="geometry">
            <mxPoint x="130" y="270" as="sourcePoint" />
            <mxPoint x="267" y="240" as="targetPoint" />
            <Array as="points">
              <mxPoint x="160" y="210" />
            </Array>
          </mxGeometry>
        </mxCell>
        <mxCell id="Ht5jDDZCFMFz_1KY98Es-15" value="P2" style="edgeLabel;html=1;align=center;verticalAlign=middle;resizable=0;points=[];labelBackgroundColor=light-dark(#C1C1C1, #d9d9d9);fontColor=#4D4D4D;" vertex="1" connectable="0" parent="Ht5jDDZCFMFz_1KY98Es-14">
          <mxGeometry x="-0.5576" relative="1" as="geometry">
            <mxPoint x="10" y="-107" as="offset" />
          </mxGeometry>
        </mxCell>
        <mxCell id="Ht5jDDZCFMFz_1KY98Es-18" value="" style="edgeStyle=elbowEdgeStyle;elbow=horizontal;endArrow=classic;html=1;curved=0;rounded=1;endSize=8;startSize=8;fontSize=12;entryX=-0.016;entryY=0.294;entryDx=0;entryDy=0;labelBackgroundColor=none;strokeColor=#788AA3;fontColor=default;entryPerimeter=0;exitX=0.987;exitY=0.537;exitDx=0;exitDy=0;exitPerimeter=0;" edge="1" parent="1" source="Ht5jDDZCFMFz_1KY98Es-6" target="EEwLQgVUChroAXqvbahQ-4">
          <mxGeometry width="50" height="50" relative="1" as="geometry">
            <mxPoint x="420" y="240" as="sourcePoint" />
            <mxPoint x="467" y="346" as="targetPoint" />
            <Array as="points">
              <mxPoint x="300" y="230" />
            </Array>
          </mxGeometry>
        </mxCell>
        <mxCell id="Ht5jDDZCFMFz_1KY98Es-19" value="rc" style="edgeLabel;html=1;align=center;verticalAlign=middle;resizable=0;points=[];labelBackgroundColor=light-dark(#C1C1C1, #d9d9d9);fontColor=#4D4D4D;" vertex="1" connectable="0" parent="Ht5jDDZCFMFz_1KY98Es-18">
          <mxGeometry x="-0.5576" relative="1" as="geometry">
            <mxPoint y="43" as="offset" />
          </mxGeometry>
        </mxCell>
        <mxCell id="Ht5jDDZCFMFz_1KY98Es-20" value="" style="endArrow=classic;html=1;rounded=1;fontSize=12;startSize=8;endSize=8;curved=1;labelBackgroundColor=none;strokeColor=#788AA3;fontColor=default;verticalAlign=middle;entryX=0;entryY=0.5;entryDx=0;entryDy=0;exitX=1;exitY=0.6;exitDx=0;exitDy=0;exitPerimeter=0;" edge="1" parent="1" target="Ht5jDDZCFMFz_1KY98Es-21">
          <mxGeometry width="50" height="50" relative="1" as="geometry">
            <mxPoint x="290" y="150" as="sourcePoint" />
            <mxPoint x="319" y="150" as="targetPoint" />
          </mxGeometry>
        </mxCell>
        <mxCell id="Ht5jDDZCFMFz_1KY98Es-21" value="m_dot" style="rounded=1;whiteSpace=wrap;html=1;labelBackgroundColor=none;fillColor=#D4E1F5;strokeColor=#788AA3;fontColor=#46495D;" vertex="1" parent="1">
          <mxGeometry x="340" y="140" width="50" height="20" as="geometry" />
        </mxCell>
        <mxCell id="Ht5jDDZCFMFz_1KY98Es-22" value="" style="edgeStyle=elbowEdgeStyle;elbow=horizontal;endArrow=classic;html=1;curved=0;rounded=1;endSize=8;startSize=8;fontSize=12;labelBackgroundColor=none;strokeColor=#788AA3;fontColor=default;exitX=1.024;exitY=0.215;exitDx=0;exitDy=0;exitPerimeter=0;entryX=-0.024;entryY=0.709;entryDx=0;entryDy=0;entryPerimeter=0;" edge="1" parent="1" source="EEwLQgVUChroAXqvbahQ-1" target="Ht5jDDZCFMFz_1KY98Es-6">
          <mxGeometry width="50" height="50" relative="1" as="geometry">
            <mxPoint x="121" y="295" as="sourcePoint" />
            <mxPoint x="180" y="190" as="targetPoint" />
            <Array as="points">
              <mxPoint x="170" y="240" />
            </Array>
          </mxGeometry>
        </mxCell>
        <mxCell id="Ht5jDDZCFMFz_1KY98Es-23" value="volumetric_flow_rate" style="edgeLabel;html=1;align=center;verticalAlign=middle;resizable=0;points=[];labelBackgroundColor=light-dark(#C1C1C1, #d9d9d9);fontColor=#4D4D4D;" vertex="1" connectable="0" parent="Ht5jDDZCFMFz_1KY98Es-22">
          <mxGeometry x="-0.5576" relative="1" as="geometry">
            <mxPoint x="59" y="-21" as="offset" />
          </mxGeometry>
        </mxCell>
        <mxCell id="Ht5jDDZCFMFz_1KY98Es-24" value="" style="edgeStyle=elbowEdgeStyle;elbow=horizontal;endArrow=classic;html=1;curved=0;rounded=1;endSize=8;startSize=8;fontSize=12;entryDx=0;entryDy=0;entryPerimeter=0;labelBackgroundColor=none;strokeColor=#788AA3;fontColor=default;" edge="1" parent="1" target="rzA8GYBJxwjR6tfgLr13-45">
          <mxGeometry width="50" height="50" relative="1" as="geometry">
            <mxPoint x="740" y="490" as="sourcePoint" />
            <mxPoint x="980" y="340" as="targetPoint" />
            <Array as="points" />
          </mxGeometry>
        </mxCell>
        <mxCell id="rzA8GYBJxwjR6tfgLr13-45" value="" style="shape=waypoint;fillStyle=solid;size=6;pointerEvents=1;points=[];fillColor=none;resizable=0;rotatable=0;perimeter=centerPerimeter;snapToPoint=1;labelBackgroundColor=none;strokeColor=#788AA3;fontColor=#46495D;rounded=1;" parent="1" vertex="1">
          <mxGeometry x="730" y="480" width="20" height="20" as="geometry" />
        </mxCell>
        <mxCell id="Ht5jDDZCFMFz_1KY98Es-27" value="" style="edgeStyle=elbowEdgeStyle;elbow=horizontal;endArrow=classic;html=1;curved=0;rounded=1;endSize=8;startSize=8;fontSize=12;labelBackgroundColor=none;strokeColor=#788AA3;fontColor=default;entryDx=0;entryDy=0;entryPerimeter=0;" edge="1" parent="1" target="rzA8GYBJxwjR6tfgLr13-18">
          <mxGeometry width="50" height="50" relative="1" as="geometry">
            <mxPoint x="210" y="460" as="sourcePoint" />
            <mxPoint x="790" y="350" as="targetPoint" />
            <Array as="points" />
          </mxGeometry>
        </mxCell>
        <mxCell id="rzA8GYBJxwjR6tfgLr13-18" value="" style="shape=waypoint;fillStyle=solid;size=6;pointerEvents=1;points=[];fillColor=none;resizable=0;rotatable=0;perimeter=centerPerimeter;snapToPoint=1;labelBackgroundColor=none;strokeColor=#788AA3;fontColor=#46495D;rounded=1;" parent="1" vertex="1">
          <mxGeometry x="200" y="450" width="20" height="20" as="geometry" />
        </mxCell>
      </root>
    </mxGraphModel>
  </diagram>
</mxfile>
